<svg width="52" height="53" viewBox="0 0 52 53" fill="none" xmlns="http://www.w3.org/2000/svg">
<rect x="2" y="2" width="48" height="49" rx="24" stroke="#006DBB" stroke-width="4"/>
<path d="M27.254 39.896C28.274 39.3973 29.056 38.842 29.6 38.23C30.144 37.6407 30.5407 37.0287 30.79 36.394C31.062 35.782 31.2093 35.17 31.232 34.558C31.2773 33.9233 31.3 33.334 31.3 32.79V32.314C30.7787 33.266 30.0193 34.0027 29.022 34.524C28.0247 35.0227 26.8687 35.272 25.554 35.272C24.126 35.272 22.902 35 21.882 34.456C20.862 33.912 20.0233 33.1413 19.366 32.144C18.7087 31.124 18.2213 29.9113 17.904 28.506C17.6093 27.1007 17.462 25.5367 17.462 23.814C17.462 22.046 17.666 20.4253 18.074 18.952C18.482 17.456 19.094 16.1753 19.91 15.11C20.7487 14.022 21.7913 13.1833 23.038 12.594C24.3073 11.982 25.8033 11.676 27.526 11.676C29.0447 11.676 30.314 11.9253 31.334 12.424C32.3767 12.9227 33.1927 13.478 33.782 14.09L31.81 16.674C31.2207 16.0847 30.4953 15.6313 29.634 15.314C28.7953 14.974 27.934 14.804 27.05 14.804C26.0753 14.804 25.2593 15.0307 24.602 15.484C23.9447 15.9373 23.412 16.5607 23.004 17.354C22.596 18.1247 22.3013 19.0427 22.12 20.108C21.9387 21.1507 21.848 22.2727 21.848 23.474C21.848 24.766 21.9273 25.9447 22.086 27.01C22.2673 28.0527 22.528 28.9593 22.868 29.73C23.2307 30.478 23.6953 31.0673 24.262 31.498C24.8287 31.906 25.52 32.11 26.336 32.11C26.8573 32.11 27.39 31.9967 27.934 31.77C28.478 31.5207 28.9653 31.1807 29.396 30.75C29.8493 30.2967 30.212 29.7527 30.484 29.118C30.756 28.4833 30.892 27.758 30.892 26.942V23.848H34.87V34.082C34.87 35.4647 34.6773 36.6207 34.292 37.55C33.9293 38.4793 33.4533 39.25 32.864 39.862C32.2973 40.4967 31.6513 41.018 30.926 41.426C30.2233 41.8567 29.5207 42.242 28.818 42.582L27.254 39.896Z" fill="#006DBB"/>
</svg>
